<?xml version="1.0" encoding="utf-8"?>
<!-- Generator: Adobe Illustrator 16.0.3, SVG Export Plug-In . SVG Version: 6.00 Build 0)  -->
<!DOCTYPE svg PUBLIC "-//W3C//DTD SVG 1.1//EN" "http://www.w3.org/Graphics/SVG/1.1/DTD/svg11.dtd">
<svg version="1.1" id="Layer_1" xmlns="http://www.w3.org/2000/svg" xmlns:xlink="http://www.w3.org/1999/xlink" x="0px" y="0px"
	 width="20px" height="20px" viewBox="0 0 20 20" enable-background="new 0 0 20 20" xml:space="preserve">
<path fill="#246B9A" d="M7.009,18.128c0.996,0,1.83-0.824,1.83-1.834c0-1.009-0.834-1.833-1.83-1.833
	c-1.024,0-1.832,0.824-1.832,1.833C5.177,17.304,5.984,18.128,7.009,18.128z"/>
<path fill="#010101" d="M12.987,5.536c1.021,0,1.836-0.821,1.836-1.831s-0.815-1.833-1.836-1.833c-1,0-1.808,0.823-1.808,1.833
	S11.987,5.536,12.987,5.536z"/>
<path fill="#010101" d="M7.009,11.823c0.996,0,1.83-0.816,1.83-1.82c0-1.01-0.834-1.829-1.83-1.829
	c-1.024,0-1.832,0.819-1.832,1.829C5.177,11.007,5.984,11.823,7.009,11.823z"/>
</svg>
